<?xml version="1.0" encoding="UTF-8"?>
<svg aria-describedby="drawspec-cmpdoc_d1ebcbaa-1ajois9-desc-1g9qwmu" aria-labelledby="drawspec-cmpdoc_d1ebcbaa-1ajois9-title-01h32cb" height="688" id="drawspec-cmpdoc_d1ebcbaa-1ajois9" role="img" viewBox="0 0 624 688" width="624" xmlns="http://www.w3.org/2000/svg">
  <style>
    :root {
    --ds-activation-fill: #e0f2fe;
    --ds-activation-stroke: #0369a1;
    --ds-background: #ffffff;
    --ds-edge-stroke: #475569;
    --ds-font-family: Arial, sans-serif;
    --ds-font-size: 14;
    --ds-group-fill: #f8fafc;
    --ds-group-stroke: #94a3b8;
    --ds-node-fill: #f8fafc;
    --ds-node-stroke: #334155;
    --ds-text: #0f172a;
    }
  </style>
  <title id="drawspec-cmpdoc_d1ebcbaa-1ajois9-title-01h32cb">
    Commerce microservices
  </title>
  <desc id="drawspec-cmpdoc_d1ebcbaa-1ajois9-desc-1g9qwmu">
    component diagram cmpdoc_d1ebcbaa
  </desc>
  <rect fill="#ffffff" height="688" width="624" x="0" y="0" />
  <defs>
    <marker id="drawspec-cmpdoc_d1ebcbaa-1ajois9-marker-circle" markerHeight="8" markerWidth="8" orient="auto" refX="8" refY="4" viewBox="0 0 8 8">
      <circle cx="4" cy="4" fill="#475569" r="3" />
    </marker>
    <marker id="drawspec-cmpdoc_d1ebcbaa-1ajois9-marker-cross" markerHeight="8" markerWidth="8" orient="auto" refX="8" refY="4" viewBox="0 0 8 8">
      <path d="M 0 0 L 8 8 M 0 8 L 8 0" fill="none" stroke="#475569" />
    </marker>
    <marker id="drawspec-cmpdoc_d1ebcbaa-1ajois9-marker-diamond" markerHeight="8" markerWidth="8" orient="auto" refX="8" refY="4" viewBox="0 0 8 8">
      <path d="M 0 4 L 4 0 L 8 4 L 4 8 z" fill="#475569" />
    </marker>
    <marker id="drawspec-cmpdoc_d1ebcbaa-1ajois9-marker-filled-triangle" markerHeight="8" markerWidth="8" orient="auto" refX="8" refY="4" viewBox="0 0 8 8">
      <path d="M 0 0 L 8 4 L 0 8 z" fill="#475569" />
    </marker>
    <marker id="drawspec-cmpdoc_d1ebcbaa-1ajois9-marker-open-arrow" markerHeight="8" markerWidth="8" orient="auto" refX="8" refY="4" viewBox="0 0 8 8">
      <path d="M 0 0 L 8 4 L 0 8" fill="none" stroke="#475569" />
    </marker>
    <marker id="drawspec-cmpdoc_d1ebcbaa-1ajois9-marker-open-triangle" markerHeight="8" markerWidth="8" orient="auto" refX="8" refY="4" viewBox="0 0 8 8">
      <path d="M 0 0 L 8 4 L 0 8" fill="none" stroke="#475569" />
    </marker>
  </defs>
  <g id="drawspec-cmpdoc_d1ebcbaa-1ajois9-edge-cmp_301fa988_provides_ifc_6725ba7f-164trrh">
    <path d="M 106 256 L 524 436" fill="none" stroke="#475569" stroke-width="1.5" />
  </g>
  <g id="drawspec-cmpdoc_d1ebcbaa-1ajois9-edge-cmp_301fa988_requires_ifc_487bdfd7-0hj0lcj">
    <path d="M 106 256 L 300 620" fill="none" stroke="#475569" stroke-width="1.5" />
  </g>
  <g id="drawspec-cmpdoc_d1ebcbaa-1ajois9-edge-cmp_301fa988_requires_ifc_66670299-1ibstka">
    <path d="M 106 256 L 100 620" fill="none" stroke="#475569" stroke-width="1.5" />
  </g>
  <g id="drawspec-cmpdoc_d1ebcbaa-1ajois9-edge-cmp_3611b529_requires_ifc_6725ba7f-07l9pgy">
    <path d="M 106 72 L 524 436" fill="none" stroke="#475569" stroke-width="1.5" />
  </g>
  <g id="drawspec-cmpdoc_d1ebcbaa-1ajois9-edge-cmp_3b1de8f3_provides_ifc_66670299-1kpgmpw">
    <path d="M 106 440 L 100 620" fill="none" stroke="#475569" stroke-width="1.5" />
  </g>
  <g id="drawspec-cmpdoc_d1ebcbaa-1ajois9-edge-cmp_ff803cd6_provides_ifc_487bdfd7-0zm1h2f">
    <path d="M 318 440 L 300 620" fill="none" stroke="#475569" stroke-width="1.5" />
  </g>
  <g id="drawspec-cmpdoc_d1ebcbaa-1ajois9-edge-dep_466a8b5c-024xzhq">
    <path d="M 106 256 L 106 440" fill="none" marker-end="url(#drawspec-cmpdoc_d1ebcbaa-1ajois9-marker-open-arrow)" stroke="#475569" stroke-dasharray="8 4" stroke-width="1.5" />
  </g>
  <g id="drawspec-cmpdoc_d1ebcbaa-1ajois9-edge-dep_4c457b48-0vo0u5w">
    <path d="M 106 72 L 106 256" fill="none" marker-end="url(#drawspec-cmpdoc_d1ebcbaa-1ajois9-marker-open-arrow)" stroke="#475569" stroke-dasharray="8 4" stroke-width="1.5" />
  </g>
  <g id="drawspec-cmpdoc_d1ebcbaa-1ajois9-edge-dep_f4db1c54-0ls0d92">
    <path d="M 106 256 L 318 440" fill="none" marker-end="url(#drawspec-cmpdoc_d1ebcbaa-1ajois9-marker-open-arrow)" stroke="#475569" stroke-dasharray="8 4" stroke-width="1.5" />
  </g>
  <g id="drawspec-cmpdoc_d1ebcbaa-1ajois9-node-cmp_301fa988-1xc3ohd">
    <path d="M 40 227 A 3 3 0 0 1 43 224 L 56 224 L 56 214 L 72 214 L 72 224 L 169 224 A 3 3 0 0 1 172 227 L 172 285 A 3 3 0 0 1 169 288 L 43 288 A 3 3 0 0 1 40 285 Z" fill="#f8fafc" stroke="#334155" stroke-width="1.5" />
  </g>
  <g id="drawspec-cmpdoc_d1ebcbaa-1ajois9-node-cmp_3611b529-0zxoe6o">
    <path d="M 40 43 A 3 3 0 0 1 43 40 L 56 40 L 56 30 L 72 30 L 72 40 L 169 40 A 3 3 0 0 1 172 43 L 172 101 A 3 3 0 0 1 169 104 L 43 104 A 3 3 0 0 1 40 101 Z" fill="#f8fafc" stroke="#334155" stroke-width="1.5" />
  </g>
  <g id="drawspec-cmpdoc_d1ebcbaa-1ajois9-node-cmp_3b1de8f3-0bst8hd">
    <path d="M 40 411 A 3 3 0 0 1 43 408 L 56 408 L 56 398 L 72 398 L 72 408 L 169 408 A 3 3 0 0 1 172 411 L 172 469 A 3 3 0 0 1 169 472 L 43 472 A 3 3 0 0 1 40 469 Z" fill="#f8fafc" stroke="#334155" stroke-width="1.5" />
  </g>
  <g id="drawspec-cmpdoc_d1ebcbaa-1ajois9-node-cmp_ff803cd6-0nz5xqz">
    <path d="M 252 411 A 3 3 0 0 1 255 408 L 268 408 L 268 398 L 284 398 L 284 408 L 381 408 A 3 3 0 0 1 384 411 L 384 469 A 3 3 0 0 1 381 472 L 255 472 A 3 3 0 0 1 252 469 Z" fill="#f8fafc" stroke="#334155" stroke-width="1.5" />
  </g>
  <g id="drawspec-cmpdoc_d1ebcbaa-1ajois9-node-ifc_487bdfd7-1382yxh">
    <rect fill="#f8fafc" height="56" rx="3" ry="3" stroke="#334155" stroke-width="1.5" width="120" x="240" y="592" />
  </g>
  <g id="drawspec-cmpdoc_d1ebcbaa-1ajois9-node-ifc_66670299-1si6i0w">
    <rect fill="#f8fafc" height="56" rx="3" ry="3" stroke="#334155" stroke-width="1.5" width="120" x="40" y="592" />
  </g>
  <g id="drawspec-cmpdoc_d1ebcbaa-1ajois9-node-ifc_6725ba7f-14avwv1">
    <rect fill="#f8fafc" height="56" rx="3" ry="3" stroke="#334155" stroke-width="1.5" width="120" x="464" y="408" />
  </g>
  <g id="drawspec-cmpdoc_d1ebcbaa-1ajois9-text-layer-1yke4f0">
    <g id="drawspec-cmpdoc_d1ebcbaa-1ajois9-label-edge-dep_466a8b5c-line0-1hgnqza-bg-0x1ok8r" transform="translate(0 58)">
      <rect fill="#ffffff" height="20" rx="3" ry="3" width="128.18" x="41.91" y="232" />
      <text data-width="124.18" fill="#0f172a" font-family="Arial, sans-serif" font-size="14" id="drawspec-cmpdoc_d1ebcbaa-1ajois9-label-edge-dep_466a8b5c-line0-1hgnqza" text-anchor="middle" x="106" y="246.2">
        Authorize payment
      </text>
    </g>
    <g id="drawspec-cmpdoc_d1ebcbaa-1ajois9-label-edge-dep_4c457b48-line0-0tvqs2w-bg-0uu196k" transform="translate(0 58)">
      <rect fill="#ffffff" height="20" rx="3" ry="3" width="117.82" x="47.09" y="48" />
      <text data-width="113.82" fill="#0f172a" font-family="Arial, sans-serif" font-size="14" id="drawspec-cmpdoc_d1ebcbaa-1ajois9-label-edge-dep_4c457b48-line0-0tvqs2w" text-anchor="middle" x="106" y="62.2">
        HTTP commands
      </text>
    </g>
    <g id="drawspec-cmpdoc_d1ebcbaa-1ajois9-label-edge-dep_f4db1c54-line0-0svewze-bg-0oxobq9" transform="translate(0 58)">
      <rect fill="#ffffff" height="20" rx="3" ry="3" width="97.66" x="163.17" y="232" />
      <text data-width="93.66" fill="#0f172a" font-family="Arial, sans-serif" font-size="14" id="drawspec-cmpdoc_d1ebcbaa-1ajois9-label-edge-dep_f4db1c54-line0-0svewze" text-anchor="middle" x="212" y="246.2">
        Reserve stock
      </text>
    </g>
    <text data-width="91.42" fill="#0f172a" font-family="Arial, sans-serif" font-size="14" id="drawspec-cmpdoc_d1ebcbaa-1ajois9-label-node-cmp_301fa988-line0-0rg2bml" text-anchor="middle" x="106" y="260.9">
      Order Service
    </text>
    <text data-width="61.74" fill="#0f172a" font-family="Arial, sans-serif" font-size="14" id="drawspec-cmpdoc_d1ebcbaa-1ajois9-label-node-cmp_3611b529-line0-0qkfprs" text-anchor="middle" x="106" y="76.9">
      Web App
    </text>
    <text data-width="57.4" fill="#0f172a" font-family="Arial, sans-serif" font-size="14" id="drawspec-cmpdoc_d1ebcbaa-1ajois9-label-node-cmp_3b1de8f3-line0-0gfjts1" text-anchor="middle" x="106" y="435.8">
      Payment
    </text>
    <text data-width="48.72" fill="#0f172a" font-family="Arial, sans-serif" font-size="14" id="drawspec-cmpdoc_d1ebcbaa-1ajois9-label-node-cmp_3b1de8f3-line1-0g5k832" text-anchor="middle" x="106" y="454">
      Service
    </text>
    <text data-width="61.88" fill="#0f172a" font-family="Arial, sans-serif" font-size="14" id="drawspec-cmpdoc_d1ebcbaa-1ajois9-label-node-cmp_ff803cd6-line0-0pg0vzz" text-anchor="middle" x="318" y="435.8">
      Inventory
    </text>
    <text data-width="48.72" fill="#0f172a" font-family="Arial, sans-serif" font-size="14" id="drawspec-cmpdoc_d1ebcbaa-1ajois9-label-node-cmp_ff803cd6-line1-0p61ab0" text-anchor="middle" x="318" y="454">
      Service
    </text>
    <text data-width="61.88" fill="#0f172a" font-family="Arial, sans-serif" font-size="14" id="drawspec-cmpdoc_d1ebcbaa-1ajois9-label-node-ifc_487bdfd7-line0-0gihg4d" text-anchor="middle" x="300" y="615.8">
      Inventory
    </text>
    <text data-width="23.8" fill="#0f172a" font-family="Arial, sans-serif" font-size="14" id="drawspec-cmpdoc_d1ebcbaa-1ajois9-label-node-ifc_487bdfd7-line1-0g8hufe" text-anchor="middle" x="300" y="634">
      API
    </text>
    <text data-width="85.82" fill="#0f172a" font-family="Arial, sans-serif" font-size="14" id="drawspec-cmpdoc_d1ebcbaa-1ajois9-label-node-ifc_66670299-line0-1uw8i0c" text-anchor="middle" x="100" y="624.9">
      Payment API
    </text>
    <text data-width="66.5" fill="#0f172a" font-family="Arial, sans-serif" font-size="14" id="drawspec-cmpdoc_d1ebcbaa-1ajois9-label-node-ifc_6725ba7f-line0-0fl0sk1" text-anchor="middle" x="524" y="440.9">
      Order API
    </text>
  </g>
</svg>
